<svg width="20" height="21" viewBox="0 0 20 21" fill="none" xmlns="http://www.w3.org/2000/svg">
<path d="M19.9205 1.20251C19.8705 1.08251 19.8005 0.97251 19.7005 0.87251C19.6005 0.77251 19.4905 0.702511 19.3705 0.652511C19.2505 0.602511 19.1305 0.58251 18.9905 0.57251H12.9905C12.4405 0.57251 11.9905 1.02251 11.9905 1.57251C11.9905 2.12251 12.4405 2.57251 12.9905 2.57251H16.5805L9.29055 9.86251C8.90055 10.2526 8.90055 10.8826 9.29055 11.2726C9.49055 11.4726 9.74055 11.5626 10.0005 11.5626C10.2605 11.5626 10.5105 11.4626 10.7105 11.2726L18.0005 3.98251V7.57251C18.0005 8.12251 18.4505 8.57251 19.0005 8.57251C19.5505 8.57251 20.0005 8.12251 20.0005 7.57251V1.57251C20.0005 1.43251 19.9705 1.31251 19.9205 1.19251V1.20251Z" fill="white"/>
<path d="M19 10.5826C18.45 10.5826 18 11.0326 18 11.5826V17.5826C18 18.1326 17.55 18.5826 17 18.5826H3C2.45 18.5826 2 18.1326 2 17.5826V3.58252C2 3.03252 2.45 2.58252 3 2.58252H9C9.55 2.58252 10 2.13252 10 1.58252C10 1.03252 9.55 0.58252 9 0.58252H3C1.35 0.58252 0 1.93252 0 3.58252V17.5826C0 19.2326 1.35 20.5826 3 20.5826H17C18.65 20.5826 20 19.2326 20 17.5826V11.5826C20 11.0326 19.55 10.5826 19 10.5826Z" fill="white"/>
</svg>
