<svg width="20" height="21" viewBox="0 0 20 21" fill="none" xmlns="http://www.w3.org/2000/svg">
<path fill-rule="evenodd" clip-rule="evenodd" d="M17.0883 10.7945C17.8248 10.0464 18.234 9.03633 18.2257 7.98652C18.2175 6.9367 17.7926 5.93315 17.0445 5.19662C16.6741 4.83193 16.2354 4.54377 15.7536 4.3486C15.2718 4.15343 14.7563 4.05506 14.2365 4.05913C13.1867 4.06733 12.1831 4.49224 11.4466 5.24037C11.2466 5.44037 10.9924 5.68586 10.6841 5.97683L9.8268 6.78412L8.96951 5.97683C8.66048 5.68516 8.40597 5.43967 8.20597 5.24037C7.46364 4.49804 6.45682 4.08101 5.40701 4.08101C4.3572 4.08101 3.35038 4.49804 2.60805 5.24037C1.07888 6.77058 1.06118 9.24454 2.5518 10.782L9.8268 18.057L17.0883 10.7945ZM1.72368 4.35704C2.20733 3.87325 2.78156 3.48949 3.41355 3.22766C4.04554 2.96583 4.72293 2.83106 5.40701 2.83106C6.09109 2.83106 6.76848 2.96583 7.40047 3.22766C8.03246 3.48949 8.60669 3.87325 9.09034 4.35704C9.27993 4.54731 9.52541 4.78412 9.8268 5.06745C10.1268 4.78412 10.3723 4.54697 10.5633 4.35599C11.5325 3.37179 12.8531 2.81295 14.2344 2.8024C15.6157 2.79185 16.9447 3.33046 17.9289 4.29974C18.9131 5.26903 19.4719 6.58958 19.4825 7.97091C19.493 9.35223 18.9544 10.6812 17.9851 11.6654L10.5633 19.0883C10.3679 19.2836 10.103 19.3933 9.8268 19.3933C9.55059 19.3933 9.28568 19.2836 9.09034 19.0883L1.66638 11.6643C0.714342 10.6825 0.186706 9.36551 0.197426 7.9979C0.208145 6.6303 0.75636 5.32178 1.72368 4.35495V4.35704Z" fill="url(#paint0_linear_44_311)"/>
<defs>
<linearGradient id="paint0_linear_44_311" x1="9.83995" y1="2.80225" x2="9.83995" y2="19.3933" gradientUnits="userSpaceOnUse">
<stop stop-color="#2F45CE"/>
<stop offset="1" stop-color="#672BCE"/>
</linearGradient>
</defs>
</svg>
