<svg width="137" height="19" viewBox="0 0 137 19" fill="none" xmlns="http://www.w3.org/2000/svg">
<path d="M11.4955 5.62343C11.4955 7.71744 10.2343 9.55763 8.37448 10.4037L12.5003 18.3567H9.1013L5.21066 10.8902H3.90665V18.3567H0.871094V0.356689H6.17263C7.64765 0.356689 8.88753 0.864327 9.93501 1.90075C10.9825 2.93718 11.4955 4.16398 11.4955 5.62343ZM3.90665 7.88665H6.17263C7.43388 7.88665 8.45999 6.87138 8.45999 5.62343C8.45999 4.37549 7.43388 3.36021 6.17263 3.36021H3.90665V7.88665Z" fill="url(#paint0_linear_38_1044)"/>
<path d="M20.2087 4.86198C22.0899 4.86198 23.6932 5.51768 25.0186 6.82907C26.344 8.16162 27.0067 9.74799 27.0067 11.6093C27.0067 12.1804 26.9425 12.6881 26.8357 13.1322H16.7456C17.3228 14.4648 18.691 15.3532 20.2087 15.3532C21.128 15.3532 21.9617 15.0359 22.6885 14.4225L25.2324 16.1358C23.8856 17.6164 22.1968 18.3567 20.2087 18.3567C18.3062 18.3567 16.7029 17.701 15.3775 16.3684C14.0521 15.057 13.3894 13.4707 13.3894 11.6093C13.3894 9.74799 14.0521 8.16162 15.3775 6.82907C16.7029 5.51768 18.3062 4.86198 20.2087 4.86198ZM16.7029 10.1287H23.6932C23.0947 8.77502 21.7479 7.84435 20.2087 7.84435C18.6482 7.84435 17.3014 8.77502 16.7029 10.1287Z" fill="url(#paint1_linear_38_1044)"/>
<path d="M35.1148 4.86198C36.6753 4.86198 38.0007 5.41192 39.1123 6.5118C40.2239 7.63283 40.7798 8.94423 40.7798 10.4883V18.3567H37.7656V10.4883C37.7656 9.76915 37.509 9.15575 36.9746 8.62696C36.4402 8.09817 35.8202 7.84435 35.1148 7.84435C34.388 7.84435 33.768 8.09817 33.255 8.62696C32.7206 9.15575 32.464 9.76915 32.464 10.4883V18.3567H29.4285V10.4883C29.4285 8.94423 29.9843 7.61168 31.0959 6.5118C32.2075 5.41192 33.5543 4.86198 35.1148 4.86198Z" fill="url(#paint2_linear_38_1044)"/>
<path d="M53.6976 6.00416V0.356689H56.7331V11.6093C56.7331 13.4707 56.0704 15.057 54.745 16.3684C53.3983 17.701 51.795 18.3567 49.9138 18.3567C48.0326 18.3567 46.4293 17.701 45.1039 16.3684C43.7572 15.057 43.0945 13.4707 43.0945 11.6093C43.0945 9.74799 43.7572 8.16162 45.1039 6.82907C46.4293 5.51768 48.0326 4.86198 49.9138 4.86198C51.2819 4.86198 52.5432 5.24271 53.6976 6.00416ZM47.2417 14.2533C47.9685 14.9936 48.8663 15.3532 49.9138 15.3532C50.9613 15.3532 51.8591 14.9936 52.6073 14.2533C53.3342 13.513 53.6976 12.6458 53.6976 11.6093C53.6976 10.5729 53.3342 9.70569 52.6073 8.96538C51.8591 8.22508 50.9613 7.8655 49.9138 7.8655C48.8663 7.8655 47.9685 8.22508 47.2417 8.96538C46.4935 9.70569 46.1301 10.5729 46.1301 11.6093C46.1301 12.6458 46.4935 13.513 47.2417 14.2533Z" fill="url(#paint3_linear_38_1044)"/>
<path d="M65.8206 4.86198C67.7018 4.86198 69.3051 5.51768 70.6304 6.82907C71.9558 8.16162 72.6185 9.74799 72.6185 11.6093C72.6185 12.1804 72.5544 12.6881 72.4475 13.1322H62.3575C62.9347 14.4648 64.3028 15.3532 65.8206 15.3532C66.7398 15.3532 67.5735 15.0359 68.3003 14.4225L70.8442 16.1358C69.4975 17.6164 67.8087 18.3567 65.8206 18.3567C63.918 18.3567 62.3147 17.701 60.9893 16.3684C59.664 15.057 59.0013 13.4707 59.0013 11.6093C59.0013 9.74799 59.664 8.16162 60.9893 6.82907C62.3147 5.51768 63.918 4.86198 65.8206 4.86198ZM62.3147 10.1287H69.3051C68.7065 8.77502 67.3597 7.84435 65.8206 7.84435C64.2601 7.84435 62.9133 8.77502 62.3147 10.1287Z" fill="url(#paint4_linear_38_1044)"/>
<path d="M77.719 18.3567H74.6834V9.34611C74.6834 8.09817 75.1323 7.04059 76.0302 6.17338C76.9066 5.30616 77.9755 4.86198 79.2368 4.86198H81.5669L80.6476 7.84435H79.2368C78.403 7.84435 77.719 8.5212 77.719 9.34611V18.3567Z" fill="url(#paint5_linear_38_1044)"/>
<path d="M91.8687 10.2345H86.7595V15.3532H93.8567V18.3567H83.724V0.356689H93.8567V3.36021H86.7595V7.25211H91.8687V10.2345Z" fill="url(#paint6_linear_38_1044)"/>
<path d="M98.2522 6.82907C99.5776 5.51768 101.181 4.86198 103.062 4.86198C104.943 4.86198 106.547 5.51768 107.893 6.82907C109.219 8.16162 109.881 9.74799 109.881 11.6093V18.3567H106.846V17.2145C105.691 17.976 104.43 18.3567 103.062 18.3567C101.181 18.3567 99.5776 17.701 98.2522 16.3684C96.9055 15.057 96.2428 13.4707 96.2428 11.6093C96.2428 9.74799 96.9055 8.16162 98.2522 6.82907ZM100.39 14.2533C101.138 14.9936 102.015 15.3532 103.062 15.3532C104.11 15.3532 104.986 14.9936 105.734 14.2533C106.482 13.513 106.846 12.6458 106.846 11.6093C106.846 10.5729 106.482 9.68454 105.734 8.94423C104.986 8.20393 104.11 7.84435 103.062 7.84435C102.015 7.84435 101.138 8.20393 100.39 8.94423C99.6418 9.68454 99.2784 10.5729 99.2784 11.6093C99.2784 12.6458 99.6418 13.513 100.39 14.2533Z" fill="url(#paint7_linear_38_1044)"/>
<path d="M116.416 9.30381C116.844 9.51533 118.105 10.1287 118.596 10.3402C118.874 10.4883 119.195 10.6787 119.558 10.9325C120.285 11.4401 120.627 11.8843 120.905 12.7092C121.055 13.1111 121.119 13.5764 121.119 14.0629C121.119 15.2474 120.691 16.2627 119.858 17.0876C119.003 17.9337 117.977 18.3567 116.779 18.3567C115.775 18.3567 114.877 18.0394 114.107 17.426C113.316 16.8126 112.803 16.03 112.568 15.0782L115.475 14.0841C115.497 14.7821 116.074 15.3532 116.779 15.3532C117.528 15.3532 118.083 14.7609 118.083 14.0629C118.083 13.6187 117.891 13.2592 117.485 12.963C117.164 12.7304 116.202 12.3285 115.433 11.9266C115.048 11.7362 114.663 11.4824 114.278 11.1863C113.509 10.6152 112.974 9.70569 112.974 8.62696C112.974 7.59053 113.338 6.70217 114.086 5.96186C114.834 5.22155 115.732 4.86198 116.779 4.86198C118.511 4.86198 119.965 5.98301 120.456 7.59053L117.57 8.5635C117.506 8.16162 117.186 7.84435 116.779 7.84435C116.352 7.84435 116.01 8.20393 116.01 8.62696C116.01 8.94423 116.138 9.15575 116.416 9.30381Z" fill="url(#paint8_linear_38_1044)"/>
<path d="M130.073 4.86198C131.954 4.86198 133.558 5.51768 134.883 6.82907C136.208 8.16162 136.871 9.74799 136.871 11.6093C136.871 12.1804 136.807 12.6881 136.7 13.1322H126.61C127.187 14.4648 128.555 15.3532 130.073 15.3532C130.992 15.3532 131.826 15.0359 132.553 14.4225L135.097 16.1358C133.75 17.6164 132.061 18.3567 130.073 18.3567C128.171 18.3567 126.567 17.701 125.242 16.3684C123.917 15.057 123.254 13.4707 123.254 11.6093C123.254 9.74799 123.917 8.16162 125.242 6.82907C126.567 5.51768 128.171 4.86198 130.073 4.86198ZM126.567 10.1287H133.558C132.959 8.77502 131.612 7.84435 130.073 7.84435C128.513 7.84435 127.166 8.77502 126.567 10.1287Z" fill="url(#paint9_linear_38_1044)"/>
<defs>
<linearGradient id="paint0_linear_38_1044" x1="0.871094" y1="2.06669" x2="5.44013" y2="35.3029" gradientUnits="userSpaceOnUse">
<stop stop-color="#244ACE"/>
<stop offset="1" stop-color="#7924CE"/>
</linearGradient>
<linearGradient id="paint1_linear_38_1044" x1="0.871094" y1="2.06669" x2="5.44013" y2="35.3029" gradientUnits="userSpaceOnUse">
<stop stop-color="#244ACE"/>
<stop offset="1" stop-color="#7924CE"/>
</linearGradient>
<linearGradient id="paint2_linear_38_1044" x1="0.871094" y1="2.06669" x2="5.44013" y2="35.3029" gradientUnits="userSpaceOnUse">
<stop stop-color="#244ACE"/>
<stop offset="1" stop-color="#7924CE"/>
</linearGradient>
<linearGradient id="paint3_linear_38_1044" x1="0.871094" y1="2.06669" x2="5.44013" y2="35.3029" gradientUnits="userSpaceOnUse">
<stop stop-color="#244ACE"/>
<stop offset="1" stop-color="#7924CE"/>
</linearGradient>
<linearGradient id="paint4_linear_38_1044" x1="0.871094" y1="2.06669" x2="5.44013" y2="35.3029" gradientUnits="userSpaceOnUse">
<stop stop-color="#244ACE"/>
<stop offset="1" stop-color="#7924CE"/>
</linearGradient>
<linearGradient id="paint5_linear_38_1044" x1="0.871094" y1="2.06669" x2="5.44013" y2="35.3029" gradientUnits="userSpaceOnUse">
<stop stop-color="#244ACE"/>
<stop offset="1" stop-color="#7924CE"/>
</linearGradient>
<linearGradient id="paint6_linear_38_1044" x1="0.871094" y1="2.06669" x2="5.44013" y2="35.3029" gradientUnits="userSpaceOnUse">
<stop stop-color="#244ACE"/>
<stop offset="1" stop-color="#7924CE"/>
</linearGradient>
<linearGradient id="paint7_linear_38_1044" x1="0.871094" y1="2.06669" x2="5.44013" y2="35.3029" gradientUnits="userSpaceOnUse">
<stop stop-color="#244ACE"/>
<stop offset="1" stop-color="#7924CE"/>
</linearGradient>
<linearGradient id="paint8_linear_38_1044" x1="0.871094" y1="2.06669" x2="5.44013" y2="35.3029" gradientUnits="userSpaceOnUse">
<stop stop-color="#244ACE"/>
<stop offset="1" stop-color="#7924CE"/>
</linearGradient>
<linearGradient id="paint9_linear_38_1044" x1="0.871094" y1="2.06669" x2="5.44013" y2="35.3029" gradientUnits="userSpaceOnUse">
<stop stop-color="#244ACE"/>
<stop offset="1" stop-color="#7924CE"/>
</linearGradient>
</defs>
</svg>
