<svg width="34" height="42" viewBox="0 0 34 42" fill="none" xmlns="http://www.w3.org/2000/svg">
<path d="M14.6696 0.00106637H2.10597C1.41207 0.00106637 0.849609 0.588626 0.849609 1.3135V40.6865C0.849609 41.4114 1.41207 41.9989 2.10597 41.9989H14.6696C15.3635 41.9989 15.926 41.4114 15.926 40.6865V1.3135C15.926 0.588626 15.3634 0.00106637 14.6696 0.00106637ZM13.4132 39.3741H3.36234V35.4368H9.64416V32.8119H3.36234V28.8746H7.13143V26.2497H3.36234V22.3124H9.64416V19.6876H3.36234V15.7503H7.13143V13.1254H3.36234V9.1881H9.64416V6.56323H3.36234V2.62593H13.4132V39.3741ZM31.3792 33.2056L27.2332 37.5235V4.47646L31.3667 8.79437L33.1382 6.94384L26.8563 0.381672C26.3663 -0.127224 25.5749 -0.127224 25.0849 0.381672L18.803 6.94384L20.5745 8.79437L24.7205 4.47646V37.5235L20.5871 33.2056L18.8156 35.0562L25.0974 41.6183C25.5875 42.1272 26.3788 42.1272 26.8689 41.6183L33.1507 35.0562L31.3792 33.2056Z" fill="black"/>
</svg>
