<svg width="33" height="32" viewBox="0 0 33 32" fill="none" xmlns="http://www.w3.org/2000/svg">
<g clip-path="url(#clip0_60_74)">
<path d="M5.33333 19C5.68696 19 6.02609 19.1405 6.27614 19.3905C6.52619 19.6406 6.66667 19.9797 6.66667 20.3333V24.3333H10.6667C11.0203 24.3333 11.3594 24.4738 11.6095 24.7239C11.8595 24.9739 12 25.313 12 25.6667C12 26.0203 11.8595 26.3594 11.6095 26.6095C11.3594 26.8595 11.0203 27 10.6667 27H6.66667C5.95942 27 5.28115 26.719 4.78105 26.219C4.28095 25.7189 4 25.0406 4 24.3333V20.3333C4 19.9797 4.14048 19.6406 4.39052 19.3905C4.64057 19.1405 4.97971 19 5.33333 19ZM26.6667 19C26.9932 19 27.3084 19.1199 27.5525 19.337C27.7965 19.554 27.9525 19.853 27.9907 20.1773L28 20.3333V24.3333C28.0002 25.0061 27.7461 25.6541 27.2887 26.1474C26.8312 26.6407 26.2042 26.9429 25.5333 26.9933L25.3333 27H21.3333C20.9935 26.9996 20.6666 26.8695 20.4195 26.6362C20.1724 26.4029 20.0237 26.0841 20.0038 25.7448C19.9839 25.4056 20.0942 25.0715 20.3124 24.8109C20.5305 24.5503 20.8399 24.3828 21.1773 24.3427L21.3333 24.3333H25.3333V20.3333C25.3333 19.9797 25.4738 19.6406 25.7239 19.3905C25.9739 19.1405 26.313 19 26.6667 19ZM25.3333 3C26.0061 2.99979 26.6541 3.25388 27.1474 3.71133C27.6407 4.16878 27.9429 4.79579 27.9933 5.46667L28 5.66667V9.66667C27.9996 10.0065 27.8695 10.3334 27.6362 10.5805C27.4029 10.8276 27.0841 10.9763 26.7448 10.9962C26.4056 11.0161 26.0715 10.9058 25.8109 10.6876C25.5503 10.4695 25.3828 10.1601 25.3427 9.82267L25.3333 9.66667V5.66667H21.3333C20.9935 5.66629 20.6666 5.53616 20.4195 5.30287C20.1724 5.06958 20.0237 4.75073 20.0038 4.41147C19.9839 4.07222 20.0942 3.73816 20.3124 3.47756C20.5305 3.21695 20.8399 3.04947 21.1773 3.00933L21.3333 3H25.3333ZM10.6667 3C11.0065 3.00038 11.3334 3.13051 11.5805 3.3638C11.8276 3.59709 11.9763 3.91594 11.9962 4.25519C12.0161 4.59445 11.9058 4.92851 11.6876 5.18911C11.4695 5.44971 11.1601 5.6172 10.8227 5.65733L10.6667 5.66667H6.66667V9.66667C6.66629 10.0065 6.53616 10.3334 6.30287 10.5805C6.06958 10.8276 5.75073 10.9763 5.41147 10.9962C5.07222 11.0161 4.73816 10.9058 4.47756 10.6876C4.21695 10.4695 4.04947 10.1601 4.00933 9.82267L4 9.66667V5.66667C3.99979 4.9939 4.25388 4.34591 4.71133 3.8526C5.16878 3.35929 5.79579 3.05712 6.46667 3.00667L6.66667 3H10.6667Z" fill="black"/>
</g>
<defs>
<clipPath id="clip0_60_74">
<rect width="32" height="32" fill="white" transform="translate(0.5)"/>
</clipPath>
</defs>
</svg>
