<svg width="20" height="21" viewBox="0 0 20 21" fill="none" xmlns="http://www.w3.org/2000/svg">
<path d="M6.0139 9.71172C5.81212 9.34864 5.49549 9.06285 5.11371 8.8992C4.73193 8.73555 4.30662 8.70331 3.90453 8.80753C3.50245 8.91176 3.14635 9.14655 2.89214 9.47505C2.63793 9.80356 2.5 10.2072 2.5 10.6225C2.5 11.0379 2.63793 11.4415 2.89214 11.77C3.14635 12.0985 3.50245 12.3333 3.90453 12.4376C4.30662 12.5418 4.73193 12.5095 5.11371 12.3459C5.49549 12.1822 5.81212 11.8965 6.0139 11.5334M6.0139 9.71172C6.1639 9.98172 6.24974 10.2917 6.24974 10.6225C6.24974 10.9534 6.1639 11.2642 6.0139 11.5334M6.0139 9.71172L13.9856 5.28338M6.0139 11.5334L13.9856 15.9617M13.9856 5.28338C14.1025 5.5035 14.262 5.6981 14.455 5.85582C14.648 6.01354 14.8704 6.13121 15.1094 6.20195C15.3484 6.27268 15.5991 6.29507 15.8468 6.26779C16.0945 6.24052 16.3343 6.16413 16.5522 6.0431C16.77 5.92207 16.9616 5.75882 17.1156 5.5629C17.2696 5.36697 17.3831 5.14231 17.4493 4.90204C17.5154 4.66177 17.5331 4.41071 17.5011 4.16355C17.4691 3.91638 17.3882 3.67807 17.2631 3.46255C17.0165 3.03783 16.6131 2.72683 16.1396 2.59639C15.6661 2.46596 15.1603 2.5265 14.731 2.76501C14.3017 3.00352 13.9831 3.40095 13.8437 3.87188C13.7043 4.3428 13.7552 4.84962 13.9856 5.28338ZM13.9856 15.9617C13.866 16.177 13.7899 16.4138 13.7618 16.6585C13.7337 16.9032 13.7541 17.151 13.8217 17.3879C13.8894 17.6247 14.0031 17.8459 14.1562 18.0388C14.3094 18.2317 14.499 18.3925 14.7143 18.5121C14.9296 18.6317 15.1664 18.7078 15.4111 18.7359C15.6558 18.764 15.9036 18.7436 16.1405 18.676C16.3773 18.6083 16.5985 18.4946 16.7914 18.3415C16.9843 18.1883 17.1451 17.9987 17.2647 17.7834C17.5063 17.3485 17.5652 16.8355 17.4286 16.3572C17.2919 15.8789 16.9708 15.4745 16.536 15.233C16.1011 14.9914 15.5881 14.9325 15.1099 15.0691C14.6316 15.2058 14.2271 15.5269 13.9856 15.9617Z" stroke="url(#paint0_linear_38_1074)" stroke-width="1.5" stroke-linecap="round" stroke-linejoin="round"/>
<defs>
<linearGradient id="paint0_linear_38_1074" x1="10.0083" y1="2.52905" x2="10.0083" y2="18.7481" gradientUnits="userSpaceOnUse">
<stop stop-color="#2C46CE"/>
<stop offset="1" stop-color="#6C29CE"/>
</linearGradient>
</defs>
</svg>
