<svg width="49" height="42" viewBox="0 0 49 42" fill="none" xmlns="http://www.w3.org/2000/svg">
<path d="M17.4712 3.77361C13.951 5.84799 10.9306 7.70169 10.7785 7.9003C10.5829 8.14305 10.5178 9.53333 10.5178 13.0201V17.8088L8.4969 18.6032C5.73723 19.7287 3.93367 20.8321 2.36913 22.3989C0.543841 24.2085 -0.0211303 25.4663 0.000599391 27.5849C0.000599391 28.9531 0.109248 29.4606 0.60903 30.4537C2.04319 33.2563 6.06317 35.9927 10.7351 37.3168C11.2783 37.4713 11.7781 37.6478 11.865 37.714C11.9519 37.7802 11.865 38.5305 11.6912 39.3471C11.3869 40.6932 11.3869 40.8918 11.6912 41.3773C12.3213 42.3262 12.7125 42.2821 16.8411 40.6049C18.9923 39.7222 20.9045 38.8616 21.0784 38.685C21.8389 37.9126 21.4912 37.2947 18.3839 34.0287C15.7763 31.2702 15.32 30.895 14.7116 30.895C13.7337 30.895 13.4295 31.3364 13.0167 33.2122C12.6038 35.0879 12.7342 35.0438 10.1918 34.0949C5.65031 32.3736 2.71681 29.8137 2.69508 27.5187C2.69508 25.665 4.95496 23.3258 8.19268 21.8472C10.6264 20.7438 10.5178 20.7218 10.5178 22.3548C10.5178 23.414 10.6047 23.8554 10.9089 24.1202C11.7346 24.8705 23.8163 31.7778 24.3161 31.7778C24.8159 31.7778 36.8976 24.8705 37.745 24.1202C38.0275 23.8554 38.1144 23.414 38.1144 22.3548C38.1144 20.7218 38.0275 20.7218 40.4395 21.8472C43.7641 23.392 45.9371 25.665 45.9371 27.5849C45.9371 29.8799 43.373 32.1529 38.8532 33.8963C36.8106 34.6687 32.7255 35.6617 30.1831 35.9927C27.8798 36.2796 27.2496 36.6327 27.2496 37.6258C27.2496 38.3099 27.9667 39.0602 28.6186 39.0602C29.3574 39.0602 33.2687 38.4423 34.9202 38.0671C39.7659 36.9637 44.1335 34.9335 46.263 32.7929C48.0666 30.9833 48.6316 29.7255 48.6316 27.5849C48.6316 25.4443 48.0666 24.1864 46.263 22.3989C44.6985 20.8321 42.895 19.7287 40.1353 18.6032L38.1144 17.8088V12.9759C38.1144 8.67268 38.071 8.12098 37.745 7.81203C37.1149 7.23827 24.5768 0 24.2074 0C24.0336 0 20.9915 1.69923 17.4712 3.77361ZM33.1818 8.3858L33.7902 8.76095L29.1618 11.4753C26.6194 12.9759 24.4465 14.1897 24.3161 14.1897C23.8815 14.1897 14.842 8.76095 15.0158 8.58441C15.1027 8.49614 17.2322 7.23827 19.7094 5.78179L24.2509 3.13364L28.4013 5.58318C30.7046 6.92932 32.8558 8.18719 33.1818 8.3858ZM18.297 14.1014L22.9037 16.8157V22.3106C22.9037 25.3339 22.8385 27.8055 22.7516 27.8055C22.6429 27.7835 20.5351 26.5697 18.0145 25.0912L13.4513 22.3989L13.3861 16.8157C13.3643 13.7262 13.4078 11.2546 13.4947 11.3208C13.6034 11.365 15.7546 12.6228 18.297 14.1014ZM35.2896 16.8157L35.2678 22.3989L30.7046 25.0471C28.2057 26.5035 26.0545 27.7173 25.9458 27.7614C25.8154 27.8055 25.7285 25.7312 25.7285 22.3327V16.8157L30.4656 14.0352C33.0514 12.5125 35.2027 11.2546 35.2461 11.2546C35.2678 11.2546 35.2896 13.7704 35.2896 16.8157ZM17.4712 37.2065C17.4712 37.3389 15.0375 38.2216 14.9506 38.1333C14.8637 38.023 15.1462 36.4782 15.4287 35.5514C15.4938 35.3307 15.8198 35.5293 16.4934 36.1913C17.0367 36.721 17.4712 37.1844 17.4712 37.2065Z" fill="black"/>
</svg>
