<svg width="46" height="45" viewBox="0 0 46 45" fill="none" xmlns="http://www.w3.org/2000/svg">
<path d="M5.58498 15.202C5.79659 15.202 5.99953 15.1179 6.14916 14.9683C6.29879 14.8186 6.38285 14.6157 6.38285 14.4041V8.19982C6.3837 7.51786 6.65498 6.86406 7.13721 6.38184C7.61943 5.89961 8.27323 5.62833 8.95519 5.62748H15.1595C15.3711 5.62748 15.574 5.54342 15.7236 5.39379C15.8733 5.24416 15.9573 5.04122 15.9573 4.82961C15.9573 4.618 15.8733 4.41506 15.7236 4.26543C15.574 4.1158 15.3711 4.03174 15.1595 4.03174H8.95519C7.85014 4.03301 6.79071 4.47255 6.00931 5.25394C5.22792 6.03533 4.78838 7.09477 4.78711 8.19982V14.4041C4.78711 14.6157 4.87117 14.8186 5.0208 14.9683C5.17043 15.1179 5.37337 15.202 5.58498 15.202ZM37.3212 4.03174H31.1169C30.9053 4.03174 30.7023 4.1158 30.5527 4.26543C30.4031 4.41506 30.319 4.618 30.319 4.82961C30.319 5.04122 30.4031 5.24416 30.5527 5.39379C30.7023 5.54342 30.9053 5.62748 31.1169 5.62748H37.3212C38.0031 5.62833 38.6569 5.89961 39.1391 6.38184C39.6214 6.86406 39.8927 7.51786 39.8935 8.19982V14.4041C39.8935 14.6157 39.9776 14.8186 40.1272 14.9683C40.2768 15.1179 40.4798 15.202 40.6914 15.202C40.903 15.202 41.1059 15.1179 41.2555 14.9683C41.4052 14.8186 41.4892 14.6157 41.4892 14.4041V8.19982C41.488 7.09477 41.0484 6.03533 40.267 5.25394C39.4856 4.47255 38.4262 4.03301 37.3212 4.03174ZM15.1595 39.1381H8.95519C8.27323 39.1373 7.61943 38.866 7.13721 38.3838C6.65498 37.9015 6.3837 37.2477 6.38285 36.5658V30.3615C6.38285 30.1499 6.29879 29.947 6.14916 29.7973C5.99953 29.6477 5.79659 29.5637 5.58498 29.5637C5.37337 29.5637 5.17043 29.6477 5.0208 29.7973C4.87117 29.947 4.78711 30.1499 4.78711 30.3615V36.5658C4.78838 37.6708 5.22792 38.7303 6.00931 39.5117C6.79071 40.2931 7.85014 40.7326 8.95519 40.7339H15.1595C15.3711 40.7339 15.574 40.6498 15.7236 40.5002C15.8733 40.3505 15.9573 40.1476 15.9573 39.936C15.9573 39.7244 15.8733 39.5214 15.7236 39.3718C15.574 39.2222 15.3711 39.1381 15.1595 39.1381ZM40.6914 29.5637C40.4798 29.5637 40.2768 29.6477 40.1272 29.7973C39.9776 29.947 39.8935 30.1499 39.8935 30.3615V36.5658C39.8927 37.2477 39.6214 37.9015 39.1391 38.3838C38.6569 38.866 38.0031 39.1373 37.3212 39.1381H31.1169C30.9053 39.1381 30.7023 39.2222 30.5527 39.3718C30.4031 39.5214 30.319 39.7244 30.319 39.936C30.319 40.1476 30.4031 40.3505 30.5527 40.5002C30.7023 40.6498 30.9053 40.7339 31.1169 40.7339H37.3212C38.4262 40.7326 39.4856 40.2931 40.267 39.5117C41.0484 38.7303 41.488 37.6708 41.4892 36.5658V30.3615C41.4892 30.1499 41.4052 29.947 41.2555 29.7973C41.1059 29.6477 40.903 29.5637 40.6914 29.5637ZM34.3084 28.3668V16.3988C34.3084 16.2587 34.2715 16.1211 34.2015 15.9998C34.1315 15.8785 34.0307 15.7778 33.9095 15.7078L23.5371 9.72376C23.4158 9.65373 23.2782 9.61687 23.1382 9.61687C22.9981 9.61687 22.8605 9.65373 22.7392 9.72376L12.3749 15.7078C12.2536 15.7778 12.1529 15.8785 12.0828 15.9998C12.0128 16.1211 11.9759 16.2587 11.9759 16.3988V28.3668C11.9759 28.5069 12.0128 28.6445 12.0828 28.7658C12.1529 28.8871 12.2536 28.9878 12.3749 29.0578L22.7472 35.0418C22.8685 35.1119 23.0061 35.1487 23.1462 35.1487C23.2862 35.1487 23.4238 35.1119 23.5451 35.0418L33.9174 29.0578C34.0372 28.9868 34.1364 28.8856 34.2049 28.7644C34.2735 28.6432 34.3092 28.5061 34.3084 28.3668ZM23.1382 11.3355L31.9148 16.3988L23.1382 21.4621L14.3696 16.3988L23.1382 11.3355ZM13.5717 17.7807L22.3403 22.844V32.969L13.5717 27.9057V17.7807ZM23.936 32.969V22.844L32.7126 17.7807V27.9057L23.936 32.969Z" fill="url(#paint0_linear_1_745)"/>
<defs>
<linearGradient id="paint0_linear_1_745" x1="4.78711" y1="7.51844" x2="39.2871" y2="40.7339" gradientUnits="userSpaceOnUse">
<stop stop-color="#244ACE"/>
<stop offset="1" stop-color="#7924CE"/>
</linearGradient>
</defs>
</svg>
