<svg width="33" height="32" viewBox="0 0 33 32" fill="none" xmlns="http://www.w3.org/2000/svg">
<g clip-path="url(#clip0_60_80)">
<path d="M19.8337 15C20.0989 15 20.3532 14.8946 20.5408 14.7071C20.7283 14.5196 20.8337 14.2652 20.8337 14C20.8337 13.7348 20.7283 13.4804 20.5408 13.2929C20.3532 13.1054 20.0989 13 19.8337 13H9.16699C8.90178 13 8.64742 13.1054 8.45989 13.2929C8.27235 13.4804 8.16699 13.7348 8.16699 14C8.16699 14.2652 8.27235 14.5196 8.45989 14.7071C8.64742 14.8946 8.90178 15 9.16699 15H19.8337Z" fill="black"/>
<path d="M0.5 14C0.5 6.268 6.768 0 14.5 0C22.232 0 28.5 6.268 28.5 14C28.5 17.5067 27.2107 20.7107 25.0813 23.1667L30.8733 28.96C31.0608 29.1474 31.166 29.4016 31.166 29.6667C31.166 29.9317 31.0608 30.1859 30.8733 30.3733C30.6859 30.5608 30.4317 30.666 30.1667 30.666C29.9016 30.666 29.6474 30.5608 29.46 30.3733L23.6667 24.5813C21.1242 26.7904 17.8681 28.0047 14.5 28C6.768 28 0.5 21.732 0.5 14ZM14.5 2C11.3174 2 8.26515 3.26428 6.01472 5.51472C3.76428 7.76515 2.5 10.8174 2.5 14C2.5 17.1826 3.76428 20.2348 6.01472 22.4853C8.26515 24.7357 11.3174 26 14.5 26C17.6826 26 20.7348 24.7357 22.9853 22.4853C25.2357 20.2348 26.5 17.1826 26.5 14C26.5 10.8174 25.2357 7.76515 22.9853 5.51472C20.7348 3.26428 17.6826 2 14.5 2Z" fill="black"/>
</g>
<defs>
<clipPath id="clip0_60_80">
<rect width="32" height="32" fill="white" transform="translate(0.5)"/>
</clipPath>
</defs>
</svg>
